# xmcd
#
# Track frame offsets:
#	150
#	19125
#	33250
#
# Disc length: 683 seconds
#
# Revision: 0
# Processed by: cddbd v1.5.1PL2 Copyright (c) Steve Scherf et al.
# Submitted via: audiograbber 1.83.01
#
DISCID=1902a903
DTITLE=Andreas Martin - Nikita and John
DYEAR=1992
DGENRE=POP
TTITLE0=Nikita and John
TTITLE1=Dieses Feuer
TTITLE2=Wenn es nur Hoffnung gibt
EXTD=
EXTT0=
EXTT1=
EXTT2=
PLAYORDER=
